<?xml version="1.0" encoding="UTF-8"?>
<svg xmlns="http://www.w3.org/2000/svg" onmouseup="{ if(window.parent.document.onmouseup) window.parent.document.onmouseup(arguments[0]);}" viewBox="0 0 323.49 232.48"><defs><style>.cls-1{fill:#18191c;}.cls-2{fill:#2f3134;}.cls-3{fill:#edeae8;}.cls-4{fill:#fff;}.cls-5{fill:#7b7b78;}.cls-6{fill:#f79a70;}.cls-7{fill:#aec1c8;}.cls-8{fill:#c0c1c5;}</style></defs><title/><g data-name="Layer 2" id="Layer_2"><g data-name="Layer 2" id="Layer_2-2"><path data-cppathid="10000" d="M210.51,228.36c9.87,2.27,8.51,4.12-3,4.12H115.16c-11.54,0-12.8-1.85-2.81-4.12,4.71-1.07,18.56-3,18.56-3h61.65S206.12,227.35,210.51,228.36Z" class="cls-1"/><polygon data-cppathid="10001" points="192.38 221.76 130.33 221.76 138.31 194.93 184.41 194.93 192.38 221.76" class="cls-2"/><path data-cppathid="10002" d="M10.19,0h303.1a10.19,10.19,0,0,1,10.19,10.19V187.34a10.19,10.19,0,0,1-10.19,10.19H10.2A10.2,10.2,0,0,1,0,187.34V10.19A10.19,10.19,0,0,1,10.19,0Z" class="cls-1"/><rect data-cppathid="10003" height="166.73" width="298.12" y="13.14" x="12.69" class="cls-3"/><circle data-cppathid="10004" r="4.09" cy="189.59" cx="161.74" class="cls-4"/><circle data-cppathid="10005" r="1.83" cy="6.48" cx="161.74" class="cls-4"/><rect data-cppathid="10006" height="23.24" width="64.4" y="22.65" x="19.19" class="cls-5"/><rect data-cppathid="10007" height="23.24" width="210.4" y="22.65" x="93.76" class="cls-6"/><rect data-cppathid="10008" height="55.4" width="284.97" y="54.11" x="19.19" class="cls-7"/><path data-cppathid="10009" d="M304.16,118.87v7.76h-88v-7.76Zm-88,13.92v7.76h88v-7.76Zm0,13.92v7.76h88V146.7Zm0,13.92v7.76h88v-7.76Z" class="cls-8"/><path data-cppathid="10010" d="M205.65,118.87v7.76h-88v-7.76Zm-88,13.92v7.76h88v-7.76Zm0,13.92v7.76h88V146.7Zm0,13.92v7.76h88v-7.76Z" class="cls-8"/><path data-cppathid="10011" d="M107.14,118.87v7.76h-88v-7.76Zm-88,13.92v7.76h88v-7.76Zm0,13.92v7.76h88V146.7Zm0,13.92v7.76h88v-7.76Z" class="cls-8"/></g></g></svg>