<?xml version="1.0" encoding="UTF-8"?>
<svg xmlns="http://www.w3.org/2000/svg" onmouseup="{ if(window.parent.document.onmouseup) window.parent.document.onmouseup(arguments[0]);}" viewBox="0 0 36 70.29"><defs><style>.cls-1{fill:#18191c;}.cls-2{fill:#edeae8;}.cls-3{fill:#fff;}.cls-4{fill:#c0c1c5;}.cls-5{fill:#7b7b78;}.cls-6{fill:#f79a70;}.cls-7{fill:#aec1c8;}</style></defs><title/><g data-name="Layer 2" id="Layer_2"><g data-name="Layer 2" id="Layer_2-2"><path data-cppathid="10000" d="M36,65.3a5.31,5.31,0,0,1-5.55,5H5.55A5.31,5.31,0,0,1,0,65.3V5A5.31,5.31,0,0,1,5.55,0H30.45A5.31,5.31,0,0,1,36,5Z" class="cls-1"/><rect data-cppathid="10001" height="48.81" width="29.29" y="10.82" x="3.36" class="cls-2"/><circle data-cppathid="10002" r="2.65" cy="64.59" cx="18" class="cls-3"/><circle data-cppathid="10003" r="0.82" cy="5.2" cx="18" class="cls-3"/><path data-cppathid="10004" d="M28.4,41.69v3H7.73v-3ZM7.73,47.12v3H28.4v-3Zm0,5.42v3H28.4v-3Z" class="cls-4"/><rect data-cppathid="10005" height="5.22" width="13.49" y="14.86" x="14.68" class="cls-5"/><path data-cppathid="10006" d="M11.85,16.43H8v-.79h3.89Zm0,.63H8v.79h3.89Zm0,1.42H8v.79h3.89Z" class="cls-6"/><rect data-cppathid="10007" height="15.63" width="20.67" y="22.58" x="7.73" class="cls-7"/></g></g></svg>