<?xml version="1.0" encoding="UTF-8"?>
<svg xmlns="http://www.w3.org/2000/svg" onmouseup="{ if(window.parent.document.onmouseup) window.parent.document.onmouseup(arguments[0]);}" viewBox="0 0 160.18 160.18"><defs><style>.cls-1{isolation:isolate;}.cls-2{fill:#2980b9;}.cls-3{mix-blend-mode:multiply;}.cls-4{fill:#d6d6d6;}.cls-5{fill:#fff;}</style></defs><title/><g class="cls-1"><g data-name="Layer 2" id="Layer_2"><g data-name="Layer 3" id="Layer_3"><path data-cppathid="10000" d="M160.18,80.09a80.36,80.36,0,0,1-2,17.73c-.22,1-.47,2-.73,3a80.23,80.23,0,0,1-53.33,55.69,78,78,0,0,1-13.36,3,80.09,80.09,0,1,1,69.36-81.39Q160.18,79.09,160.18,80.09Z" class="cls-2"/></g><g class="cls-3" data-name="Layer 1 copy" id="Layer_1_copy"><path data-cppathid="10001" d="M156.64,103.73a80.24,80.24,0,0,1-65.85,55.74q-2.83.38-5.73.56L32.75,107.54h0a4.58,4.58,0,0,1-1.37-3.23l-.14-36.94a4.61,4.61,0,0,1,4.61-4.6h7l0-9.92a1.87,1.87,0,0,1,2.06-1.58l58.5,0a2.29,2.29,0,0,1,1.68.66Z" class="cls-4"/></g><g data-name="Layer 1" id="Layer_1-2"><path data-cppathid="10002" d="M126.75,76.16H105.22V52.86a1.86,1.86,0,0,0-2.05-1.58H44.88a1.86,1.86,0,0,0-2,1.58v9.91h-7a4.62,4.62,0,0,0-4.61,4.6v36.93a4.62,4.62,0,0,0,4.61,4.59H54.4A4.61,4.61,0,0,0,59,104.31V87.2h11.5v8.27H66.81a1.26,1.26,0,0,0-1.27,1.26A1.28,1.28,0,0,0,66.81,98H81.25a1.27,1.27,0,0,0,1.27-1.27,1.24,1.24,0,0,0-.37-.89,1.26,1.26,0,0,0-.89-.37H77.93V87.2h6.51v16a2.28,2.28,0,0,0,2.15,2.37h40.17a2.28,2.28,0,0,0,2.15-2.37V78.53A2.28,2.28,0,0,0,126.75,76.16Zm-70.64-5.8v31a.86.86,0,0,1-.87.86H35a.84.84,0,0,1-.66-.31l-.21.31V69.49h22l-.21.31A.85.85,0,0,1,56.11,70.36Zm28.33,8.16v5.92H59V67.37a4.61,4.61,0,0,0-4.59-4.6H46.24v-7.4c0-.74.81-1.34,1.82-1.34H100c1,0,1.82.61,1.82,1.34V76.16H86.6A2.27,2.27,0,0,0,84.44,78.52Zm41.25,23.28a.64.64,0,0,1-.61.67H88.27a.64.64,0,0,1-.61-.67V79.88a.64.64,0,0,1,.61-.67h36.81a.64.64,0,0,1,.61.67Z" class="cls-5"/><path data-cppathid="10003" d="M56.11,69.49l-.21.31a.86.86,0,0,0-.66-.31Z" class="cls-5"/><path data-cppathid="10004" d="M56.11,69.49l-.21.31a.86.86,0,0,0-.66-.31Z" class="cls-5"/></g></g></g></svg>