<?xml version="1.0" encoding="UTF-8"?>
<svg xmlns="http://www.w3.org/2000/svg" onmouseup="{ if(window.parent.document.onmouseup) window.parent.document.onmouseup(arguments[0]);}" viewBox="0 0 100.56 136.68"><defs><style>.cls-1{fill:#18191c;}.cls-2{fill:#edeae8;}.cls-3{fill:#fff;}.cls-4{fill:#7b7b78;}.cls-5{fill:#f79a70;}.cls-6{fill:#aec1c8;}.cls-7{fill:#c0c1c5;}</style></defs><title/><g data-name="Layer 2" id="Layer_2"><g data-name="Layer 2" id="Layer_2-2"><path data-cppathid="10000" d="M100.56,129.2a7.7,7.7,0,0,1-7.87,7.48H7.87A7.7,7.7,0,0,1,0,129.2V7.48A7.7,7.7,0,0,1,7.87,0H92.69a7.71,7.71,0,0,1,7.87,7.48Z" class="cls-1"/><rect data-cppathid="10001" height="110.09" width="81.55" y="13.43" x="9.5" class="cls-2"/><circle data-cppathid="10002" r="1.22" cy="7.83" cx="50.28" class="cls-3"/><circle data-cppathid="10003" r="3.87" cy="129.64" cx="50.28" class="cls-3"/><rect data-cppathid="10004" height="14.85" width="56.33" y="20.79" x="29.69" class="cls-4"/><path data-cppathid="10005" d="M24.34,25.69H15V23.76h9.31Zm0,1.56H15v1.93h9.31Zm0,3.49H15v1.93h9.31Z" class="cls-5"/><rect data-cppathid="10006" height="29.51" width="71.73" y="42.29" x="14.29" class="cls-6"/><path data-cppathid="10007" d="M86,79.65V81.8H63.88V79.65ZM63.88,83.51v2.15H86V83.51Zm0,3.86v2.15H86V87.37Zm0,3.86v2.15H86V91.23Z" class="cls-7"/><path data-cppathid="10008" d="M61.22,79.65V81.8H39.08V79.65ZM39.08,83.51v2.15H61.22V83.51Zm0,3.86v2.15H61.22V87.37Zm0,3.86v2.15H61.22V91.23Z" class="cls-7"/><path data-cppathid="10009" d="M36.43,79.65V81.8H14.29V79.65ZM14.29,83.51v2.15H36.43V83.51Zm0,3.86v2.15H36.43V87.37Zm0,3.86v2.15H36.43V91.23Z" class="cls-7"/><path data-cppathid="10010" d="M86,99.6v2.15H63.88V99.6Zm-22.14,3.86v2.15H86v-2.15Zm0,3.86v2.15H86v-2.15Zm0,3.86v2.15H86v-2.15Z" class="cls-7"/><path data-cppathid="10011" d="M61.22,99.6v2.15H39.08V99.6Zm-22.14,3.86v2.15H61.22v-2.15Zm0,3.86v2.15H61.22v-2.15Zm0,3.86v2.15H61.22v-2.15Z" class="cls-7"/><path data-cppathid="10012" d="M36.43,99.6v2.15H14.29V99.6Zm-22.14,3.86v2.15H36.43v-2.15Zm0,3.86v2.15H36.43v-2.15Zm0,3.86v2.15H36.43v-2.15Z" class="cls-7"/></g></g></svg>